<?xml version="1.0" encoding="UTF-8"?>
<svg id="Layer_1" xmlns="http://www.w3.org/2000/svg" version="1.1" viewBox="0 0 148.7 85">
  <!-- Generator: Adobe Illustrator 29.6.0, SVG Export Plug-In . SVG Version: 2.1.1 Build 207)  -->
  <defs>
    <style>
      .st0 {
        fill: #c2d2e9;
      }

      .st1 {
        fill: #fff;
      }
    </style>
  </defs>
  <path class="st1" d="M70,59.4c-.2.2-.3.4-.5.5-.2.1-.4.2-.7.2s-.5,0-.7-.2c-.2-.1-.5-.3-.8-.4-.3-.2-.6-.3-1-.4-.4-.1-.8-.2-1.4-.2s-1.3.1-1.8.4c-.5.3-.9.6-1.2,1.1-.3.5-.6,1-.7,1.7-.2.7-.2,1.5-.2,2.3,0,1.8.4,3.2,1,4.1.7,1,1.6,1.4,2.9,1.4s1.2,0,1.6-.2c.4-.2.7-.3,1-.5.3-.2.5-.4.7-.5.2-.2.5-.3.8-.3s.8.2,1,.5l1.6,2c-.6.7-1.2,1.2-1.8,1.6-.6.4-1.3.7-2,1-.7.2-1.3.4-2,.5-.7,0-1.3.1-2,.1-1.1,0-2.2-.2-3.3-.7-1-.4-2-1.1-2.8-1.9-.8-.8-1.4-1.8-1.9-3-.5-1.2-.7-2.6-.7-4.1s.2-2.6.6-3.8c.4-1.2,1-2.2,1.8-3.1.8-.9,1.8-1.5,2.9-2,1.2-.5,2.5-.7,4-.7s2.8.2,3.9.7c1.1.5,2.1,1.2,3,2.1l-1.5,2Z"/>
  <path class="st1" d="M13.8,73.7v-14.9l-1.2-.3c-.4,0-.8-.2-1-.5-.3-.2-.4-.5-.4-.9v-2.2h2.6v-1.1c0-1.1.2-2,.5-2.9.3-.9.8-1.6,1.5-2.2.6-.6,1.4-1.1,2.4-1.4.9-.3,2-.5,3.2-.5s.9,0,1.3,0c.4,0,.8.1,1.2.3v2.7c-.1.2-.2.3-.3.5,0,.1-.2.2-.3.3-.1,0-.3.1-.4.2-.2,0-.3,0-.5,0-.5,0-.9,0-1.3.1-.4,0-.7.3-1,.5-.3.2-.5.6-.6,1-.1.4-.2.9-.2,1.5v.9h4.4v3.8h-4.2v14.9h-5.6Z"/>
  <path class="st1" d="M80.4,70.3c.7,0,1.4-.1,1.9-.4.5-.3,1.1-.7,1.6-1.2v-2.6c-1.1,0-2,.1-2.8.3-.7.1-1.3.3-1.7.5-.4.2-.7.5-.9.7-.2.3-.2.6-.2.9,0,.6.2,1.1.5,1.3.3.3.9.4,1.5.4M86.8,73.7c-.5,0-.9,0-1.2-.2-.3-.1-.5-.4-.7-.9l-.4-1c-.5.4-.9.7-1.4,1.1-.4.3-.9.6-1.3.8-.5.2-1,.4-1.5.5-.5.1-1.1.2-1.8.2s-1.6-.1-2.3-.3c-.7-.2-1.3-.5-1.8-1-.5-.4-.9-1-1.1-1.6-.3-.6-.4-1.4-.4-2.2s.2-1.3.5-2c.3-.7.9-1.3,1.8-1.9.8-.6,2-1,3.4-1.4,1.4-.4,3.2-.6,5.3-.7v-.8c0-1.1-.2-1.9-.7-2.4-.5-.5-1.1-.7-1.9-.7s-1.2,0-1.6.2c-.4.1-.8.3-1.1.5-.3.2-.7.3-1,.5-.3.1-.7.2-1.1.2s-.7,0-1-.3c-.3-.2-.5-.4-.7-.7l-1-1.8c1.1-1,2.4-1.8,3.8-2.2s2.9-.7,4.4-.7,2.2.2,3.1.5c.9.4,1.7.9,2.3,1.5.6.7,1.1,1.4,1.5,2.3.3.9.5,1.9.5,3v11.7h-2.6Z"/>
  <path class="st1" d="M100.6,69.7c.4,0,.8,0,1.1-.1.3,0,.6-.2.9-.3.3-.1.5-.3.8-.5.2-.2.5-.5.7-.8v-8c-.4-.5-.9-.8-1.4-1-.5-.2-1-.3-1.6-.3s-1,.1-1.4.3c-.4.2-.8.5-1.1,1-.3.5-.6,1-.8,1.8-.2.7-.3,1.6-.3,2.6s0,1.8.2,2.5c.1.7.4,1.2.6,1.6.3.4.6.7.9.9.4.2.8.3,1.2.3M106.2,73.7c-.7,0-1.2-.3-1.4-.9l-.4-1.4c-.4.4-.8.8-1.2,1.1-.4.3-.9.6-1.3.8-.5.2-1,.4-1.5.5-.6.1-1.1.2-1.8.2-1,0-1.9-.2-2.7-.7-.8-.4-1.6-1.1-2.2-1.9-.6-.8-1.1-1.8-1.4-3-.3-1.2-.5-2.5-.5-4.1s.2-2.7.6-3.9c.4-1.2.9-2.2,1.6-3.1.7-.9,1.6-1.6,2.5-2.1,1-.5,2.1-.7,3.3-.7s1.8.1,2.5.4c.7.3,1.3.7,1.8,1.1v-9.5h5.6v27.1h-3.5Z"/>
  <path class="st1" d="M25.7,73.7v-18.8h3.5c.7,0,1.2.3,1.4.9l.3,1c.3-.3.6-.6,1-.9.3-.3.7-.5,1.1-.7.4-.2.8-.4,1.3-.5.5-.1.9-.2,1.5-.2,1.1,0,2.1.3,2.8.9.7.6,1.3,1.4,1.7,2.3.3-.6.7-1.1,1.2-1.5.5-.4.9-.7,1.5-1,.5-.3,1.1-.4,1.7-.6.6-.1,1.2-.2,1.7-.2,1.1,0,2,.2,2.9.5.8.3,1.5.8,2.1,1.4.6.6,1,1.4,1.3,2.2.3.9.4,1.9.4,3v11.9h-5.6v-11.9c0-1.9-.8-2.9-2.5-2.9s-1.4.2-1.9.7c-.5.5-.8,1.2-.8,2.2v11.9h-5.6v-11.9c0-1.1-.2-1.8-.6-2.3-.4-.4-1-.7-1.9-.7s-1,.1-1.4.3c-.5.2-.9.5-1.3.9v13.6h-5.6Z"/>
  <path class="st0" d="M41.8,27.2c-.3,0-.5-.1-.7-.3-.2-.2-.3-.4-.3-.7h0c0-.3.1-.5.3-.7.2-.2.4-.3.7-.3h0c.3,0,.5.1.7.3.2.2.3.4.3.7h0s0,0,0,0c0,.3-.1.5-.3.7-.2.2-.4.3-.7.3ZM38.9,17.1h0c-.3,0-.5-.1-.7-.3-.2-.2-.3-.4-.3-.7h0c0-.3.1-.5.3-.7.2-.2.4-.3.7-.3h0s0,0,0,0c.3,0,.5.1.7.3.2.2.3.4.3.7h0c0,.3-.1.5-.3.7-.2.2-.4.3-.7.3h0ZM25.1,21.5h0c-.3,0-.5-.1-.7-.3-.2-.2-.3-.4-.3-.7h0c0-.3.1-.5.3-.7.2-.2.4-.3.7-.3h0c.3,0,.5.1.7.3.2.2.3.4.3.7h0c0,.3-.1.5-.3.7-.2.2-.4.3-.7.3M31.5,7.1l-13.7,13.7v5.7l1.5,1.5,2-2,.4.4,2.9-2.9v-.5c-.5-.1-1-.4-1.3-.7-.5-.5-.8-1.1-.8-1.9h0c0-.7.3-1.4.8-1.9.5-.5,1.1-.8,1.9-.8h0c.7,0,1.4.3,1.9.8.5.5.8,1.1.8,1.9h0c0,.7-.3,1.4-.8,1.9-.2.2-.5.4-.8.5v1.1c0,.2-.1.4-.3.5h0s-3.1,3.1-3.1,3.1l.5.5-2,2,.8.8,2-2,.4.4,6.8-6.8v-2.8c-.2,0-.3-.2-.4-.3-.6-.6-.6-1.6,0-2.2.6-.6,1.6-.6,2.2,0,.6.6.6,1.6,0,2.2,0,0-.2.2-.3.2v3.2c0,.2,0,.4-.2.6h0s-7,7-7,7l.4.4-2,2,.8.8,2-2,.4.4,11.2-11.2v-2.1c-.6,0-1.1-.4-1.4-.7-.5-.5-.8-1.1-.8-1.9h0c0-.7.3-1.4.8-1.9.5-.5,1.1-.8,1.9-.8h0s0,0,0,0c.7,0,1.4.3,1.9.8s.8,1.1.8,1.9h0c0,.7-.3,1.4-.8,1.9-.2.2-.4.4-.7.5h0s0,2.7,0,2.7c0,.2,0,.4-.2.6h0s-3.5,3.5-3.5,3.5h3.1c.1-.3.3-.6.5-.8.5-.5,1.1-.8,1.9-.8h0c.7,0,1.4.3,1.9.8.5.5.8,1.1.8,1.9h0s0,0,0,0c0,.7-.3,1.4-.8,1.9-.5.5-1.1.8-1.9.8s-1.4-.3-1.9-.8c-.4-.4-.6-.8-.7-1.3h-4.4s0,0-.1,0l-6.4,6.4.4.4-2,2,.8.8,2-2,.4.4,2.5-2.5h0c.1-.1.3-.2.5-.2h2.5c.1-.4.3-.7.6-1,.5-.5,1.1-.8,1.9-.8h0c.7,0,1.4.3,1.9.8.5.5.8,1.1.8,1.9h0s0,0,0,0c0,.7-.3,1.4-.8,1.9-.5.5-1.1.8-1.9.8h0c-.7,0-1.4-.3-1.9-.8-.3-.3-.5-.7-.7-1.1h-2.1s-2.3,2.3-2.3,2.3l.4.4-2,2,1.8,1.8h5.4c5.4-5.4,8.3-8.3,13.7-13.7v-5.7l-13.5-13.5h-5.4ZM38,33.7c-.3,0-.5-.1-.7-.3-.2-.2-.3-.4-.3-.7h0c0-.3.1-.5.3-.7.2-.2.4-.3.7-.3h0c.3,0,.5.1.7.3.2.2.3.4.3.7h0s0,0,0,0h0s0,0,0,0h0c0,.3-.1.5-.3.7-.2.2-.4.3-.7.3h0Z"/>
  <path class="st0" d="M114.9,70.6v2.7l.6.6h2.7l.5-.5v-2.7l-.6-.6h-2.7l-.5.5Z"/>
  <g>
    <path class="st0" d="M114.9,70.7v2.7l.6.6h2.6l.5-.5v-2.7l-.5-.5h-2.6l-.5.5Z"/>
    <g>
      <path class="st0" d="M124.3,47.2c.7,0,1.4.1,2,.3s1.1.5,1.5.9.7.8,1,1.4c.2.5.3,1.1.3,1.7s0,1-.2,1.5c-.2.5-.4.9-.6,1.3-.3.4-.6.8-.9,1.2s-.7.8-1.1,1.2l-2.9,3c.4-.1.7-.2,1.1-.3.4,0,.7,0,1,0h2.8c.3,0,.6,0,.8.3.2.2.3.4.3.7v1.8h-10.5v-1c0-.2,0-.4.1-.6,0-.2.2-.4.4-.6l4.3-4.3c.4-.4.7-.7,1-1.1s.5-.7.7-1,.3-.6.4-1c0-.3.1-.7.1-1,0-.6-.1-1-.4-1.4s-.7-.5-1.3-.5-.9.1-1.2.4c-.3.2-.5.6-.7.9-.1.4-.3.6-.6.7s-.6.1-1,0l-1.7-.3c.1-.7.3-1.4.6-1.9.3-.6.7-1,1.2-1.4.5-.4,1-.6,1.6-.8.6-.2,1.2-.3,1.9-.3Z"/>
      <path class="st0" d="M135.8,52.6c0,0-.1.2-.2.2s-.1.2-.2.2c.2,0,.5-.2.8-.2.3,0,.5,0,.8,0,.5,0,1.1,0,1.6.3.5.2,1,.4,1.4.8.4.4.8.8,1,1.4.3.6.4,1.2.4,2s-.1,1.4-.4,2c-.3.6-.6,1.2-1.1,1.6-.5.5-1,.8-1.7,1.1-.7.3-1.4.4-2.2.4s-1.6-.1-2.2-.4-1.2-.6-1.7-1.1c-.5-.5-.8-1-1.1-1.7-.2-.7-.4-1.4-.4-2.2,0-1.5.6-3,1.7-4.5l3.3-4.5c.2-.2.4-.4.7-.5.3-.1.6-.2,1-.2h2.8l-4.4,5.3ZM133.7,57.5c0,.4,0,.7.1,1,0,.3.2.5.4.8s.4.4.7.5.6.2,1,.2.6,0,.9-.2c.3-.1.5-.3.7-.5.2-.2.4-.5.5-.8s.2-.6.2-.9,0-.7-.2-1c-.1-.3-.3-.6-.5-.8-.2-.2-.5-.4-.7-.5-.3-.1-.6-.2-1-.2s-.6,0-.9.2c-.3.1-.5.3-.7.5-.2.2-.3.5-.5.8-.1.3-.2.6-.2,1Z"/>
    </g>
  </g>
</svg>